<?xml version="1.0" encoding="utf-8"?>
<!-- generated by make_anchor_mesh.py, do not edit -->
<COLLADA xmlns="http://www.collada.org/2005/11/COLLADASchema" version="1.4.1">
  <asset><unit name="meter" meter="1"/><up_axis>Z_UP</up_axis></asset>
  <library_effects>
    <effect id="stand-effect"><profile_COMMON><technique sid="common"><phong>
      <diffuse><color>0.62 0.64 0.68 1</color></diffuse>
      <specular><color>0.3 0.3 0.3 1</color></specular><shininess><float>20</float></shininess>
    </phong></technique></profile_COMMON></effect>
    <effect id="module-effect"><profile_COMMON><technique sid="common"><phong>
      <diffuse><color>0.1 0.35 0.8 1</color></diffuse>
      <specular><color>0.3 0.3 0.3 1</color></specular><shininess><float>20</float></shininess>
    </phong></technique></profile_COMMON></effect>
    <effect id="antenna-effect"><profile_COMMON><technique sid="common"><phong>
      <diffuse><color>0.08 0.08 0.08 1</color></diffuse>
      <specular><color>0.3 0.3 0.3 1</color></specular><shininess><float>20</float></shininess>
    </phong></technique></profile_COMMON></effect>
    <effect id="led-effect"><profile_COMMON><technique sid="common"><phong>
      <diffuse><color>1.0 0.55 0.05 1</color></diffuse>
      <specular><color>0.3 0.3 0.3 1</color></specular><shininess><float>20</float></shininess>
    </phong></technique></profile_COMMON></effect>
  </library_effects>
  <library_materials>
    <material id="stand-material" name="stand"><instance_effect url="#stand-effect"/></material>
    <material id="module-material" name="module"><instance_effect url="#module-effect"/></material>
    <material id="antenna-material" name="antenna"><instance_effect url="#antenna-effect"/></material>
    <material id="led-material" name="led"><instance_effect url="#led-effect"/></material>
  </library_materials>
  <library_geometries>
    <geometry id="stand-mesh" name="stand"><mesh>
      <source id="stand-pos"><float_array id="stand-pos-array" count="1224">-0.02000 -0.02000 -0.10500 0.02000 -0.02000 -0.10500 0.02000 0.02000 -0.10500 -0.02000 0.02000 -0.10500 -0.02000 -0.02000 -0.08500 0.02000 -0.02000 -0.08500 0.02000 0.02000 -0.08500 -0.02000 0.02000 -0.08500 0.00000 -0.01400 -0.10500 -0.00362 -0.01352 -0.10500 -0.00700 -0.01212 -0.10500 -0.00990 -0.00990 -0.10500 -0.01212 -0.00700 -0.10500 -0.01352 -0.00362 -0.10500 -0.01400 -0.00000 -0.10500 -0.01352 0.00362 -0.10500 -0.01212 0.00700 -0.10500 -0.00990 0.00990 -0.10500 -0.00700 0.01212 -0.10500 -0.00362 0.01352 -0.10500 -0.00000 0.01400 -0.10500 0.00362 0.01352 -0.10500 0.00700 0.01212 -0.10500 0.00990 0.00990 -0.10500 0.01212 0.00700 -0.10500 0.01352 0.00362 -0.10500 0.01400 0.00000 -0.10500 0.01352 -0.00362 -0.10500 0.01212 -0.00700 -0.10500 0.00990 -0.00990 -0.10500 0.00700 -0.01212 -0.10500 0.00362 -0.01352 -0.10500 0.00000 -0.01400 -1.40000 -0.00362 -0.01352 -1.40000 -0.00700 -0.01212 -1.40000 -0.00990 -0.00990 -1.40000 -0.01212 -0.00700 -1.40000 -0.01352 -0.00362 -1.40000 -0.01400 -0.00000 -1.40000 -0.01352 0.00362 -1.40000 -0.01212 0.00700 -1.40000 -0.00990 0.00990 -1.40000 -0.00700 0.01212 -1.40000 -0.00362 0.01352 -1.40000 -0.00000 0.01400 -1.40000 0.00362 0.01352 -1.40000 0.00700 0.01212 -1.40000 0.00990 0.00990 -1.40000 0.01212 0.00700 -1.40000 0.01352 0.00362 -1.40000 0.01400 0.00000 -1.40000 0.01352 -0.00362 -1.40000 0.01212 -0.00700 -1.40000 0.00990 -0.00990 -1.40000 0.00700 -0.01212 -1.40000 0.00362 -0.01352 -1.40000 0.00000 0.00000 -0.10500 0.00000 0.00000 -1.40000 0.00000 -0.03000 -1.37000 -0.00776 -0.02898 -1.37000 -0.01500 -0.02598 -1.37000 -0.02121 -0.02121 -1.37000 -0.02598 -0.01500 -1.37000 -0.02898 -0.00776 -1.37000 -0.03000 -0.00000 -1.37000 -0.02898 0.00776 -1.37000 -0.02598 0.01500 -1.37000 -0.02121 0.02121 -1.37000 -0.01500 0.02598 -1.37000 -0.00776 0.02898 -1.37000 -0.00000 0.03000 -1.37000 0.00776 0.02898 -1.37000 0.01500 0.02598 -1.37000 0.02121 0.02121 -1.37000 0.02598 0.01500 -1.37000 0.02898 0.00776 -1.37000 0.03000 0.00000 -1.37000 0.02898 -0.00776 -1.37000 0.02598 -0.01500 -1.37000 0.02121 -0.02121 -1.37000 0.01500 -0.02598 -1.37000 0.00776 -0.02898 -1.37000 0.00000 -0.03000 -1.43000 -0.00776 -0.02898 -1.43000 -0.01500 -0.02598 -1.43000 -0.02121 -0.02121 -1.43000 -0.02598 -0.01500 -1.43000 -0.02898 -0.00776 -1.43000 -0.03000 -0.00000 -1.43000 -0.02898 0.00776 -1.43000 -0.02598 0.01500 -1.43000 -0.02121 0.02121 -1.43000 -0.01500 0.02598 -1.43000 -0.00776 0.02898 -1.43000 -0.00000 0.03000 -1.43000 0.00776 0.02898 -1.43000 0.01500 0.02598 -1.43000 0.02121 0.02121 -1.43000 0.02598 0.01500 -1.43000 0.02898 0.00776 -1.43000 0.03000 0.00000 -1.43000 0.02898 -0.00776 -1.43000 0.02598 -0.01500 -1.43000 0.02121 -0.02121 -1.43000 0.01500 -0.02598 -1.43000 0.00776 -0.02898 -1.43000 0.00000 0.00000 -1.37000 0.00000 0.00000 -1.43000 0.00000 -0.01200 -1.40000 -0.00191 -0.01159 -1.40245 -0.00368 -0.01039 -1.40474 -0.00521 -0.00849 -1.40670 -0.00638 -0.00600 -1.40820 -0.00712 -0.00311 -1.40915 -0.00737 -0.00000 -1.40947 -0.00712 0.00311 -1.40915 -0.00638 0.00600 -1.40820 -0.00521 0.00849 -1.40670 -0.00368 0.01039 -1.40474 -0.00191 0.01159 -1.40245 -0.00000 0.01200 -1.40000 0.00191 0.01159 -1.39755 0.00368 0.01039 -1.39526 0.00521 0.00849 -1.39330 0.00638 0.00600 -1.39180 0.00712 0.00311 -1.39085 0.00737 0.00000 -1.39053 0.00712 -0.00311 -1.39085 0.00638 -0.00600 -1.39180 0.00521 -0.00849 -1.39330 0.00368 -0.01039 -1.39526 0.00191 -0.01159 -1.39755 0.45000 -0.00900 -1.75000 0.44857 -0.00869 -1.75184 0.44724 -0.00779 -1.75355 0.44609 -0.00636 -1.75502 0.44521 -0.00450 -1.75615 0.44466 -0.00233 -1.75686 0.44447 -0.00000 -1.75710 0.44466 0.00233 -1.75686 0.44521 0.00450 -1.75615 0.44609 0.00636 -1.75502 0.44724 0.00779 -1.75355 0.44857 0.00869 -1.75184 0.45000 0.00900 -1.75000 0.45143 0.00869 -1.74816 0.45276 0.00779 -1.74645 0.45391 0.00636 -1.74498 0.45479 0.00450 -1.74385 0.45534 0.00233 -1.74314 0.45553 0.00000 -1.74290 0.45534 -0.00233 -1.74314 0.45479 -0.00450 -1.74385 0.45391 -0.00636 -1.74498 0.45276 -0.00779 -1.74645 0.45143 -0.00869 -1.74816 0.00000 0.00000 -1.40000 0.45000 0.00000 -1.75000 0.45000 -0.02500 -1.74000 0.44353 -0.02415 -1.74000 0.43750 -0.02165 -1.74000 0.43232 -0.01768 -1.74000 0.42835 -0.01250 -1.74000 0.42585 -0.00647 -1.74000 0.42500 -0.00000 -1.74000 0.42585 0.00647 -1.74000 0.42835 0.01250 -1.74000 0.43232 0.01768 -1.74000 0.43750 0.02165 -1.74000 0.44353 0.02415 -1.74000 0.45000 0.02500 -1.74000 0.45647 0.02415 -1.74000 0.46250 0.02165 -1.74000 0.46768 0.01768 -1.74000 0.47165 0.01250 -1.74000 0.47415 0.00647 -1.74000 0.47500 0.00000 -1.74000 0.47415 -0.00647 -1.74000 0.47165 -0.01250 -1.74000 0.46768 -0.01768 -1.74000 0.46250 -0.02165 -1.74000 0.45647 -0.02415 -1.74000 0.45000 -0.02500 -1.75000 0.44353 -0.02415 -1.75000 0.43750 -0.02165 -1.75000 0.43232 -0.01768 -1.75000 0.42835 -0.01250 -1.75000 0.42585 -0.00647 -1.75000 0.42500 -0.00000 -1.75000 0.42585 0.00647 -1.75000 0.42835 0.01250 -1.75000 0.43232 0.01768 -1.75000 0.43750 0.02165 -1.75000 0.44353 0.02415 -1.75000 0.45000 0.02500 -1.75000 0.45647 0.02415 -1.75000 0.46250 0.02165 -1.75000 0.46768 0.01768 -1.75000 0.47165 0.01250 -1.75000 0.47415 0.00647 -1.75000 0.47500 0.00000 -1.75000 0.47415 -0.00647 -1.75000 0.47165 -0.01250 -1.75000 0.46768 -0.01768 -1.75000 0.46250 -0.02165 -1.75000 0.45647 -0.02415 -1.75000 0.45000 0.00000 -1.74000 0.45000 0.00000 -1.75000 0.01039 0.00600 -1.40000 0.01099 0.00414 -1.40245 0.01084 0.00201 -1.40474 0.00995 -0.00027 -1.40670 0.00839 -0.00253 -1.40820 0.00625 -0.00461 -1.40915 0.00368 -0.00638 -1.40947 0.00087 -0.00772 -1.40915 -0.00201 -0.00853 -1.40820 -0.00474 -0.00875 -1.40670 -0.00716 -0.00839 -1.40474 -0.00908 -0.00745 -1.40245 -0.01039 -0.00600 -1.40000 -0.01099 -0.00414 -1.39755 -0.01084 -0.00201 -1.39526 -0.00995 0.00027 -1.39330 -0.00839 0.00253 -1.39180 -0.00625 0.00461 -1.39085 -0.00368 0.00638 -1.39053 -0.00087 0.00772 -1.39085 0.00201 0.00853 -1.39180 0.00474 0.00875 -1.39330 0.00716 0.00839 -1.39526 0.00908 0.00745 -1.39755 -0.21721 0.39421 -1.75000 -0.21676 0.39282 -1.75184 -0.21687 0.39122 -1.75355 -0.21754 0.38951 -1.75502 -0.21871 0.38782 -1.75615 -0.22031 0.38625 -1.75686 -0.22224 0.38493 -1.75710 -0.22435 0.38392 -1.75686 -0.22650 0.38332 -1.75615 -0.22856 0.38315 -1.75502 -0.23037 0.38342 -1.75355 -0.23181 0.38413 -1.75184 -0.23279 0.38521 -1.75000 -0.23324 0.38660 -1.74816 -0.23313 0.38821 -1.74645 -0.23246 0.38991 -1.74498 -0.23129 0.39161 -1.74385 -0.22969 0.39317 -1.74314 -0.22776 0.39450 -1.74290 -0.22565 0.39550 -1.74314 -0.22350 0.39611 -1.74385 -0.22144 0.39628 -1.74498 -0.21963 0.39600 -1.74645 -0.21819 0.39530 -1.74816 0.00000 0.00000 -1.40000 -0.22500 0.38971 -1.75000 -0.22500 0.36471 -1.74000 -0.23147 0.36556 -1.74000 -0.23750 0.36806 -1.74000 -0.24268 0.37203 -1.74000 -0.24665 0.37721 -1.74000 -0.24915 0.38324 -1.74000 -0.25000 0.38971 -1.74000 -0.24915 0.39618 -1.74000 -0.24665 0.40221 -1.74000 -0.24268 0.40739 -1.74000 -0.23750 0.41136 -1.74000 -0.23147 0.41386 -1.74000 -0.22500 0.41471 -1.74000 -0.21853 0.41386 -1.74000 -0.21250 0.41136 -1.74000 -0.20732 0.40739 -1.74000 -0.20335 0.40221 -1.74000 -0.20085 0.39618 -1.74000 -0.20000 0.38971 -1.74000 -0.20085 0.38324 -1.74000 -0.20335 0.37721 -1.74000 -0.20732 0.37203 -1.74000 -0.21250 0.36806 -1.74000 -0.21853 0.36556 -1.74000 -0.22500 0.36471 -1.75000 -0.23147 0.36556 -1.75000 -0.23750 0.36806 -1.75000 -0.24268 0.37203 -1.75000 -0.24665 0.37721 -1.75000 -0.24915 0.38324 -1.75000 -0.25000 0.38971 -1.75000 -0.24915 0.39618 -1.75000 -0.24665 0.40221 -1.75000 -0.24268 0.40739 -1.75000 -0.23750 0.41136 -1.75000 -0.23147 0.41386 -1.75000 -0.22500 0.41471 -1.75000 -0.21853 0.41386 -1.75000 -0.21250 0.41136 -1.75000 -0.20732 0.40739 -1.75000 -0.20335 0.40221 -1.75000 -0.20085 0.39618 -1.75000 -0.20000 0.38971 -1.75000 -0.20085 0.38324 -1.75000 -0.20335 0.37721 -1.75000 -0.20732 0.37203 -1.75000 -0.21250 0.36806 -1.75000 -0.21853 0.36556 -1.75000 -0.22500 0.38971 -1.74000 -0.22500 0.38971 -1.75000 -0.01039 0.00600 -1.40000 -0.00908 0.00745 -1.40245 -0.00716 0.00839 -1.40474 -0.00474 0.00875 -1.40670 -0.00201 0.00853 -1.40820 0.00087 0.00772 -1.40915 0.00368 0.00638 -1.40947 0.00625 0.00461 -1.40915 0.00839 0.00253 -1.40820 0.00995 0.00027 -1.40670 0.01084 -0.00201 -1.40474 0.01099 -0.00414 -1.40245 0.01039 -0.00600 -1.40000 0.00908 -0.00745 -1.39755 0.00716 -0.00839 -1.39526 0.00474 -0.00875 -1.39330 0.00201 -0.00853 -1.39180 -0.00087 -0.00772 -1.39085 -0.00368 -0.00638 -1.39053 -0.00625 -0.00461 -1.39085 -0.00839 -0.00253 -1.39180 -0.00995 -0.00027 -1.39330 -0.01084 0.00201 -1.39526 -0.01099 0.00414 -1.39755 -0.23279 -0.38521 -1.75000 -0.23181 -0.38413 -1.75184 -0.23037 -0.38342 -1.75355 -0.22856 -0.38315 -1.75502 -0.22650 -0.38332 -1.75615 -0.22435 -0.38392 -1.75686 -0.22224 -0.38493 -1.75710 -0.22031 -0.38625 -1.75686 -0.21871 -0.38782 -1.75615 -0.21754 -0.38951 -1.75502 -0.21687 -0.39122 -1.75355 -0.21676 -0.39282 -1.75184 -0.21721 -0.39421 -1.75000 -0.21819 -0.39530 -1.74816 -0.21963 -0.39600 -1.74645 -0.22144 -0.39628 -1.74498 -0.22350 -0.39611 -1.74385 -0.22565 -0.39550 -1.74314 -0.22776 -0.39450 -1.74290 -0.22969 -0.39317 -1.74314 -0.23129 -0.39161 -1.74385 -0.23246 -0.38991 -1.74498 -0.23313 -0.38821 -1.74645 -0.23324 -0.38660 -1.74816 0.00000 0.00000 -1.40000 -0.22500 -0.38971 -1.75000 -0.22500 -0.41471 -1.74000 -0.23147 -0.41386 -1.74000 -0.23750 -0.41136 -1.74000 -0.24268 -0.40739 -1.74000 -0.24665 -0.40221 -1.74000 -0.24915 -0.39618 -1.74000 -0.25000 -0.38971 -1.74000 -0.24915 -0.38324 -1.74000 -0.24665 -0.37721 -1.74000 -0.24268 -0.37203 -1.74000 -0.23750 -0.36806 -1.74000 -0.23147 -0.36556 -1.74000 -0.22500 -0.36471 -1.74000 -0.21853 -0.36556 -1.74000 -0.21250 -0.36806 -1.74000 -0.20732 -0.37203 -1.74000 -0.20335 -0.37721 -1.74000 -0.20085 -0.38324 -1.74000 -0.20000 -0.38971 -1.74000 -0.20085 -0.39618 -1.74000 -0.20335 -0.40221 -1.74000 -0.20732 -0.40739 -1.74000 -0.21250 -0.41136 -1.74000 -0.21853 -0.41386 -1.74000 -0.22500 -0.41471 -1.75000 -0.23147 -0.41386 -1.75000 -0.23750 -0.41136 -1.75000 -0.24268 -0.40739 -1.75000 -0.24665 -0.40221 -1.75000 -0.24915 -0.39618 -1.75000 -0.25000 -0.38971 -1.75000 -0.24915 -0.38324 -1.75000 -0.24665 -0.37721 -1.75000 -0.24268 -0.37203 -1.75000 -0.23750 -0.36806 -1.75000 -0.23147 -0.36556 -1.75000 -0.22500 -0.36471 -1.75000 -0.21853 -0.36556 -1.75000 -0.21250 -0.36806 -1.75000 -0.20732 -0.37203 -1.75000 -0.20335 -0.37721 -1.75000 -0.20085 -0.38324 -1.75000 -0.20000 -0.38971 -1.75000 -0.20085 -0.39618 -1.75000 -0.20335 -0.40221 -1.75000 -0.20732 -0.40739 -1.75000 -0.21250 -0.41136 -1.75000 -0.21853 -0.41386 -1.75000 -0.22500 -0.38971 -1.74000 -0.22500 -0.38971 -1.75000</float_array>
        <technique_common><accessor source="#stand-pos-array" count="408" stride="3">
          <param name="X" type="float"/><param name="Y" type="float"/><param name="Z" type="float"/>
        </accessor></technique_common></source>
      <vertices id="stand-vtx"><input semantic="POSITION" source="#stand-pos"/></vertices>
      <triangles material="stand-mat" count="780">
        <input semantic="VERTEX" source="#stand-vtx" offset="0"/><p>0 3 2 0 2 1 4 5 6 4 6 7 0 1 5 0 5 4 1 2 6 1 6 5 2 3 7 2 7 6 3 0 4 3 4 7 8 9 33 8 33 32 56 9 8 57 32 33 9 10 34 9 34 33 56 10 9 57 33 34 10 11 35 10 35 34 56 11 10 57 34 35 11 12 36 11 36 35 56 12 11 57 35 36 12 13 37 12 37 36 56 13 12 57 36 37 13 14 38 13 38 37 56 14 13 57 37 38 14 15 39 14 39 38 56 15 14 57 38 39 15 16 40 15 40 39 56 16 15 57 39 40 16 17 41 16 41 40 56 17 16 57 40 41 17 18 42 17 42 41 56 18 17 57 41 42 18 19 43 18 43 42 56 19 18 57 42 43 19 20 44 19 44 43 56 20 19 57 43 44 20 21 45 20 45 44 56 21 20 57 44 45 21 22 46 21 46 45 56 22 21 57 45 46 22 23 47 22 47 46 56 23 22 57 46 47 23 24 48 23 48 47 56 24 23 57 47 48 24 25 49 24 49 48 56 25 24 57 48 49 25 26 50 25 50 49 56 26 25 57 49 50 26 27 51 26 51 50 56 27 26 57 50 51 27 28 52 27 52 51 56 28 27 57 51 52 28 29 53 28 53 52 56 29 28 57 52 53 29 30 54 29 54 53 56 30 29 57 53 54 30 31 55 30 55 54 56 31 30 57 54 55 31 8 32 31 32 55 56 8 31 57 55 32 58 59 83 58 83 82 106 59 58 107 82 83 59 60 84 59 84 83 106 60 59 107 83 84 60 61 85 60 85 84 106 61 60 107 84 85 61 62 86 61 86 85 106 62 61 107 85 86 62 63 87 62 87 86 106 63 62 107 86 87 63 64 88 63 88 87 106 64 63 107 87 88 64 65 89 64 89 88 106 65 64 107 88 89 65 66 90 65 90 89 106 66 65 107 89 90 66 67 91 66 91 90 106 67 66 107 90 91 67 68 92 67 92 91 106 68 67 107 91 92 68 69 93 68 93 92 106 69 68 107 92 93 69 70 94 69 94 93 106 70 69 107 93 94 70 71 95 70 95 94 106 71 70 107 94 95 71 72 96 71 96 95 106 72 71 107 95 96 72 73 97 72 97 96 106 73 72 107 96 97 73 74 98 73 98 97 106 74 73 107 97 98 74 75 99 74 99 98 106 75 74 107 98 99 75 76 100 75 100 99 106 76 75 107 99 100 76 77 101 76 101 100 106 77 76 107 100 101 77 78 102 77 102 101 106 78 77 107 101 102 78 79 103 78 103 102 106 79 78 107 102 103 79 80 104 79 104 103 106 80 79 107 103 104 80 81 105 80 105 104 106 81 80 107 104 105 81 58 82 81 82 105 106 58 81 107 105 82 108 109 133 108 133 132 156 109 108 157 132 133 109 110 134 109 134 133 156 110 109 157 133 134 110 111 135 110 135 134 156 111 110 157 134 135 111 112 136 111 136 135 156 112 111 157 135 136 112 113 137 112 137 136 156 113 112 157 136 137 113 114 138 113 138 137 156 114 113 157 137 138 114 115 139 114 139 138 156 115 114 157 138 139 115 116 140 115 140 139 156 116 115 157 139 140 116 117 141 116 141 140 156 117 116 157 140 141 117 118 142 117 142 141 156 118 117 157 141 142 118 119 143 118 143 142 156 119 118 157 142 143 119 120 144 119 144 143 156 120 119 157 143 144 120 121 145 120 145 144 156 121 120 157 144 145 121 122 146 121 146 145 156 122 121 157 145 146 122 123 147 122 147 146 156 123 122 157 146 147 123 124 148 123 148 147 156 124 123 157 147 148 124 125 149 124 149 148 156 125 124 157 148 149 125 126 150 125 150 149 156 126 125 157 149 150 126 127 151 126 151 150 156 127 126 157 150 151 127 128 152 127 152 151 156 128 127 157 151 152 128 129 153 128 153 152 156 129 128 157 152 153 129 130 154 129 154 153 156 130 129 157 153 154 130 131 155 130 155 154 156 131 130 157 154 155 131 108 132 131 132 155 156 108 131 157 155 132 158 159 183 158 183 182 206 159 158 207 182 183 159 160 184 159 184 183 206 160 159 207 183 184 160 161 185 160 185 184 206 161 160 207 184 185 161 162 186 161 186 185 206 162 161 207 185 186 162 163 187 162 187 186 206 163 162 207 186 187 163 164 188 163 188 187 206 164 163 207 187 188 164 165 189 164 189 188 206 165 164 207 188 189 165 166 190 165 190 189 206 166 165 207 189 190 166 167 191 166 191 190 206 167 166 207 190 191 167 168 192 167 192 191 206 168 167 207 191 192 168 169 193 168 193 192 206 169 168 207 192 193 169 170 194 169 194 193 206 170 169 207 193 194 170 171 195 170 195 194 206 171 170 207 194 195 171 172 196 171 196 195 206 172 171 207 195 196 172 173 197 172 197 196 206 173 172 207 196 197 173 174 198 173 198 197 206 174 173 207 197 198 174 175 199 174 199 198 206 175 174 207 198 199 175 176 200 175 200 199 206 176 175 207 199 200 176 177 201 176 201 200 206 177 176 207 200 201 177 178 202 177 202 201 206 178 177 207 201 202 178 179 203 178 203 202 206 179 178 207 202 203 179 180 204 179 204 203 206 180 179 207 203 204 180 181 205 180 205 204 206 181 180 207 204 205 181 158 182 181 182 205 206 158 181 207 205 182 208 209 233 208 233 232 256 209 208 257 232 233 209 210 234 209 234 233 256 210 209 257 233 234 210 211 235 210 235 234 256 211 210 257 234 235 211 212 236 211 236 235 256 212 211 257 235 236 212 213 237 212 237 236 256 213 212 257 236 237 213 214 238 213 238 237 256 214 213 257 237 238 214 215 239 214 239 238 256 215 214 257 238 239 215 216 240 215 240 239 256 216 215 257 239 240 216 217 241 216 241 240 256 217 216 257 240 241 217 218 242 217 242 241 256 218 217 257 241 242 218 219 243 218 243 242 256 219 218 257 242 243 219 220 244 219 244 243 256 220 219 257 243 244 220 221 245 220 245 244 256 221 220 257 244 245 221 222 246 221 246 245 256 222 221 257 245 246 222 223 247 222 247 246 256 223 222 257 246 247 223 224 248 223 248 247 256 224 223 257 247 248 224 225 249 224 249 248 256 225 224 257 248 249 225 226 250 225 250 249 256 226 225 257 249 250 226 227 251 226 251 250 256 227 226 257 250 251 227 228 252 227 252 251 256 228 227 257 251 252 228 229 253 228 253 252 256 229 228 257 252 253 229 230 254 229 254 253 256 230 229 257 253 254 230 231 255 230 255 254 256 231 230 257 254 255 231 208 232 231 232 255 256 208 231 257 255 232 258 259 283 258 283 282 306 259 258 307 282 283 259 260 284 259 284 283 306 260 259 307 283 284 260 261 285 260 285 284 306 261 260 307 284 285 261 262 286 261 286 285 306 262 261 307 285 286 262 263 287 262 287 286 306 263 262 307 286 287 263 264 288 263 288 287 306 264 263 307 287 288 264 265 289 264 289 288 306 265 264 307 288 289 265 266 290 265 290 289 306 266 265 307 289 290 266 267 291 266 291 290 306 267 266 307 290 291 267 268 292 267 292 291 306 268 267 307 291 292 268 269 293 268 293 292 306 269 268 307 292 293 269 270 294 269 294 293 306 270 269 307 293 294 270 271 295 270 295 294 306 271 270 307 294 295 271 272 296 271 296 295 306 272 271 307 295 296 272 273 297 272 297 296 306 273 272 307 296 297 273 274 298 273 298 297 306 274 273 307 297 298 274 275 299 274 299 298 306 275 274 307 298 299 275 276 300 275 300 299 306 276 275 307 299 300 276 277 301 276 301 300 306 277 276 307 300 301 277 278 302 277 302 301 306 278 277 307 301 302 278 279 303 278 303 302 306 279 278 307 302 303 279 280 304 279 304 303 306 280 279 307 303 304 280 281 305 280 305 304 306 281 280 307 304 305 281 258 282 281 282 305 306 258 281 307 305 282 308 309 333 308 333 332 356 309 308 357 332 333 309 310 334 309 334 333 356 310 309 357 333 334 310 311 335 310 335 334 356 311 310 357 334 335 311 312 336 311 336 335 356 312 311 357 335 336 312 313 337 312 337 336 356 313 312 357 336 337 313 314 338 313 338 337 356 314 313 357 337 338 314 315 339 314 339 338 356 315 314 357 338 339 315 316 340 315 340 339 356 316 315 357 339 340 316 317 341 316 341 340 356 317 316 357 340 341 317 318 342 317 342 341 356 318 317 357 341 342 318 319 343 318 343 342 356 319 318 357 342 343 319 320 344 319 344 343 356 320 319 357 343 344 320 321 345 320 345 344 356 321 320 357 344 345 321 322 346 321 346 345 356 322 321 357 345 346 322 323 347 322 347 346 356 323 322 357 346 347 323 324 348 323 348 347 356 324 323 357 347 348 324 325 349 324 349 348 356 325 324 357 348 349 325 326 350 325 350 349 356 326 325 357 349 350 326 327 351 326 351 350 356 327 326 357 350 351 327 328 352 327 352 351 356 328 327 357 351 352 328 329 353 328 353 352 356 329 328 357 352 353 329 330 354 329 354 353 356 330 329 357 353 354 330 331 355 330 355 354 356 331 330 357 354 355 331 308 332 331 332 355 356 308 331 357 355 332 358 359 383 358 383 382 406 359 358 407 382 383 359 360 384 359 384 383 406 360 359 407 383 384 360 361 385 360 385 384 406 361 360 407 384 385 361 362 386 361 386 385 406 362 361 407 385 386 362 363 387 362 387 386 406 363 362 407 386 387 363 364 388 363 388 387 406 364 363 407 387 388 364 365 389 364 389 388 406 365 364 407 388 389 365 366 390 365 390 389 406 366 365 407 389 390 366 367 391 366 391 390 406 367 366 407 390 391 367 368 392 367 392 391 406 368 367 407 391 392 368 369 393 368 393 392 406 369 368 407 392 393 369 370 394 369 394 393 406 370 369 407 393 394 370 371 395 370 395 394 406 371 370 407 394 395 371 372 396 371 396 395 406 372 371 407 395 396 372 373 397 372 397 396 406 373 372 407 396 397 373 374 398 373 398 397 406 374 373 407 397 398 374 375 399 374 399 398 406 375 374 407 398 399 375 376 400 375 400 399 406 376 375 407 399 400 376 377 401 376 401 400 406 377 376 407 400 401 377 378 402 377 402 401 406 378 377 407 401 402 378 379 403 378 403 402 406 379 378 407 402 403 379 380 404 379 404 403 406 380 379 407 403 404 380 381 405 380 405 404 406 381 380 407 404 405 381 358 382 381 382 405 406 358 381 407 405 382</p></triangles>
    </mesh></geometry>
    <geometry id="module-mesh" name="module"><mesh>
      <source id="module-pos"><float_array id="module-pos-array" count="24">-0.05000 -0.03500 -0.08500 0.05000 -0.03500 -0.08500 0.05000 0.03500 -0.08500 -0.05000 0.03500 -0.08500 -0.05000 -0.03500 -0.05500 0.05000 -0.03500 -0.05500 0.05000 0.03500 -0.05500 -0.05000 0.03500 -0.05500</float_array>
        <technique_common><accessor source="#module-pos-array" count="8" stride="3">
          <param name="X" type="float"/><param name="Y" type="float"/><param name="Z" type="float"/>
        </accessor></technique_common></source>
      <vertices id="module-vtx"><input semantic="POSITION" source="#module-pos"/></vertices>
      <triangles material="module-mat" count="12">
        <input semantic="VERTEX" source="#module-vtx" offset="0"/><p>0 3 2 0 2 1 4 5 6 4 6 7 0 1 5 0 5 4 1 2 6 1 6 5 2 3 7 2 7 6 3 0 4 3 4 7</p></triangles>
    </mesh></geometry>
    <geometry id="antenna-mesh" name="antenna"><mesh>
      <source id="antenna-pos"><float_array id="antenna-pos-array" count="300">0.00000 0.00800 -0.05500 -0.00207 0.00773 -0.05500 -0.00400 0.00693 -0.05500 -0.00566 0.00566 -0.05500 -0.00693 0.00400 -0.05500 -0.00773 0.00207 -0.05500 -0.00800 0.00000 -0.05500 -0.00773 -0.00207 -0.05500 -0.00693 -0.00400 -0.05500 -0.00566 -0.00566 -0.05500 -0.00400 -0.00693 -0.05500 -0.00207 -0.00773 -0.05500 -0.00000 -0.00800 -0.05500 0.00207 -0.00773 -0.05500 0.00400 -0.00693 -0.05500 0.00566 -0.00566 -0.05500 0.00693 -0.00400 -0.05500 0.00773 -0.00207 -0.05500 0.00800 -0.00000 -0.05500 0.00773 0.00207 -0.05500 0.00693 0.00400 -0.05500 0.00566 0.00566 -0.05500 0.00400 0.00693 -0.05500 0.00207 0.00773 -0.05500 0.00000 0.00600 0.06000 -0.00155 0.00580 0.06000 -0.00300 0.00520 0.06000 -0.00424 0.00424 0.06000 -0.00520 0.00300 0.06000 -0.00580 0.00155 0.06000 -0.00600 0.00000 0.06000 -0.00580 -0.00155 0.06000 -0.00520 -0.00300 0.06000 -0.00424 -0.00424 0.06000 -0.00300 -0.00520 0.06000 -0.00155 -0.00580 0.06000 -0.00000 -0.00600 0.06000 0.00155 -0.00580 0.06000 0.00300 -0.00520 0.06000 0.00424 -0.00424 0.06000 0.00520 -0.00300 0.06000 0.00580 -0.00155 0.06000 0.00600 -0.00000 0.06000 0.00580 0.00155 0.06000 0.00520 0.00300 0.06000 0.00424 0.00424 0.06000 0.00300 0.00520 0.06000 0.00155 0.00580 0.06000 0.00000 0.00000 -0.05500 0.00000 0.00000 0.06000 0.00000 0.01000 0.06000 -0.00259 0.00966 0.06000 -0.00500 0.00866 0.06000 -0.00707 0.00707 0.06000 -0.00866 0.00500 0.06000 -0.00966 0.00259 0.06000 -0.01000 0.00000 0.06000 -0.00966 -0.00259 0.06000 -0.00866 -0.00500 0.06000 -0.00707 -0.00707 0.06000 -0.00500 -0.00866 0.06000 -0.00259 -0.00966 0.06000 -0.00000 -0.01000 0.06000 0.00259 -0.00966 0.06000 0.00500 -0.00866 0.06000 0.00707 -0.00707 0.06000 0.00866 -0.00500 0.06000 0.00966 -0.00259 0.06000 0.01000 -0.00000 0.06000 0.00966 0.00259 0.06000 0.00866 0.00500 0.06000 0.00707 0.00707 0.06000 0.00500 0.00866 0.06000 0.00259 0.00966 0.06000 0.00000 0.01000 0.07500 -0.00259 0.00966 0.07500 -0.00500 0.00866 0.07500 -0.00707 0.00707 0.07500 -0.00866 0.00500 0.07500 -0.00966 0.00259 0.07500 -0.01000 0.00000 0.07500 -0.00966 -0.00259 0.07500 -0.00866 -0.00500 0.07500 -0.00707 -0.00707 0.07500 -0.00500 -0.00866 0.07500 -0.00259 -0.00966 0.07500 -0.00000 -0.01000 0.07500 0.00259 -0.00966 0.07500 0.00500 -0.00866 0.07500 0.00707 -0.00707 0.07500 0.00866 -0.00500 0.07500 0.00966 -0.00259 0.07500 0.01000 -0.00000 0.07500 0.00966 0.00259 0.07500 0.00866 0.00500 0.07500 0.00707 0.00707 0.07500 0.00500 0.00866 0.07500 0.00259 0.00966 0.07500 0.00000 0.00000 0.06000 0.00000 0.00000 0.07500</float_array>
        <technique_common><accessor source="#antenna-pos-array" count="100" stride="3">
          <param name="X" type="float"/><param name="Y" type="float"/><param name="Z" type="float"/>
        </accessor></technique_common></source>
      <vertices id="antenna-vtx"><input semantic="POSITION" source="#antenna-pos"/></vertices>
      <triangles material="antenna-mat" count="192">
        <input semantic="VERTEX" source="#antenna-vtx" offset="0"/><p>0 1 25 0 25 24 48 1 0 49 24 25 1 2 26 1 26 25 48 2 1 49 25 26 2 3 27 2 27 26 48 3 2 49 26 27 3 4 28 3 28 27 48 4 3 49 27 28 4 5 29 4 29 28 48 5 4 49 28 29 5 6 30 5 30 29 48 6 5 49 29 30 6 7 31 6 31 30 48 7 6 49 30 31 7 8 32 7 32 31 48 8 7 49 31 32 8 9 33 8 33 32 48 9 8 49 32 33 9 10 34 9 34 33 48 10 9 49 33 34 10 11 35 10 35 34 48 11 10 49 34 35 11 12 36 11 36 35 48 12 11 49 35 36 12 13 37 12 37 36 48 13 12 49 36 37 13 14 38 13 38 37 48 14 13 49 37 38 14 15 39 14 39 38 48 15 14 49 38 39 15 16 40 15 40 39 48 16 15 49 39 40 16 17 41 16 41 40 48 17 16 49 40 41 17 18 42 17 42 41 48 18 17 49 41 42 18 19 43 18 43 42 48 19 18 49 42 43 19 20 44 19 44 43 48 20 19 49 43 44 20 21 45 20 45 44 48 21 20 49 44 45 21 22 46 21 46 45 48 22 21 49 45 46 22 23 47 22 47 46 48 23 22 49 46 47 23 0 24 23 24 47 48 0 23 49 47 24 50 51 75 50 75 74 98 51 50 99 74 75 51 52 76 51 76 75 98 52 51 99 75 76 52 53 77 52 77 76 98 53 52 99 76 77 53 54 78 53 78 77 98 54 53 99 77 78 54 55 79 54 79 78 98 55 54 99 78 79 55 56 80 55 80 79 98 56 55 99 79 80 56 57 81 56 81 80 98 57 56 99 80 81 57 58 82 57 82 81 98 58 57 99 81 82 58 59 83 58 83 82 98 59 58 99 82 83 59 60 84 59 84 83 98 60 59 99 83 84 60 61 85 60 85 84 98 61 60 99 84 85 61 62 86 61 86 85 98 62 61 99 85 86 62 63 87 62 87 86 98 63 62 99 86 87 63 64 88 63 88 87 98 64 63 99 87 88 64 65 89 64 89 88 98 65 64 99 88 89 65 66 90 65 90 89 98 66 65 99 89 90 66 67 91 66 91 90 98 67 66 99 90 91 67 68 92 67 92 91 98 68 67 99 91 92 68 69 93 68 93 92 98 69 68 99 92 93 69 70 94 69 94 93 98 70 69 99 93 94 70 71 95 70 95 94 98 71 70 99 94 95 71 72 96 71 96 95 98 72 71 99 95 96 72 73 97 72 97 96 98 73 72 99 96 97 73 50 74 73 74 97 98 50 73 99 97 74</p></triangles>
    </mesh></geometry>
    <geometry id="led-mesh" name="led"><mesh>
      <source id="led-pos"><float_array id="led-pos-array" count="24">0.04900 -0.01000 -0.06900 0.05300 -0.01000 -0.06900 0.05300 0.01000 -0.06900 0.04900 0.01000 -0.06900 0.04900 -0.01000 -0.06100 0.05300 -0.01000 -0.06100 0.05300 0.01000 -0.06100 0.04900 0.01000 -0.06100</float_array>
        <technique_common><accessor source="#led-pos-array" count="8" stride="3">
          <param name="X" type="float"/><param name="Y" type="float"/><param name="Z" type="float"/>
        </accessor></technique_common></source>
      <vertices id="led-vtx"><input semantic="POSITION" source="#led-pos"/></vertices>
      <triangles material="led-mat" count="12">
        <input semantic="VERTEX" source="#led-vtx" offset="0"/><p>0 3 2 0 2 1 4 5 6 4 6 7 0 1 5 0 5 4 1 2 6 1 6 5 2 3 7 2 7 6 3 0 4 3 4 7</p></triangles>
    </mesh></geometry>
  </library_geometries>
  <library_visual_scenes><visual_scene id="scene" name="scene">
      <node id="stand" name="stand"><instance_geometry url="#stand-mesh">
        <bind_material><technique_common>
          <instance_material symbol="stand-mat" target="#stand-material"/>
        </technique_common></bind_material></instance_geometry></node>
      <node id="module" name="module"><instance_geometry url="#module-mesh">
        <bind_material><technique_common>
          <instance_material symbol="module-mat" target="#module-material"/>
        </technique_common></bind_material></instance_geometry></node>
      <node id="antenna" name="antenna"><instance_geometry url="#antenna-mesh">
        <bind_material><technique_common>
          <instance_material symbol="antenna-mat" target="#antenna-material"/>
        </technique_common></bind_material></instance_geometry></node>
      <node id="led" name="led"><instance_geometry url="#led-mesh">
        <bind_material><technique_common>
          <instance_material symbol="led-mat" target="#led-material"/>
        </technique_common></bind_material></instance_geometry></node>
  </visual_scene></library_visual_scenes>
  <scene><instance_visual_scene url="#scene"/></scene>
</COLLADA>
